<svg width="384" height="448.5" xmlns="http://www.w3.org/2000/svg">
 <defs>
  <style>.cls-1{fill:#fff;}</style>
 </defs>
 <title>MongoDB_Leaf_White_RGB</title>
 <g>
  <title>Layer 1</title>
  <path id="svg_1" d="m285.77,179.74c-23,-101.51 -77.36,-134.89 -83.21,-147.64c-6.42,-9 -12.89,-25 -12.89,-25c-0.11,-0.27 -0.28,-0.75 -0.48,-1.21c-0.66,9 -1,12.47 -9.51,21.54c-13.17,10.3 -80.75,67 -86.25,182.33c-5.13,107.56 77.7,171.66 88.93,179.83l1.27,0.9l0,-0.08c0.07,0.54 3.55,25.6 6,52.16l8.77,0a516.82,516.82 0 0 1 9.26,-55.85l0.68,-0.46a145.43,145.43 0 0 0 14.3,-11.7l0.51,-0.46c23.81,-22 66.62,-72.88 66.2,-154a246.84,246.84 0 0 0 -3.58,-40.36zm-97.09,149.12s0,-150.86 5,-150.83c3.88,0 8.91,194.59 8.91,194.59c-6.93,-0.83 -13.91,-32.02 -13.91,-43.76z" class="cls-1"/>
 </g>
</svg>