<svg width="640" height="640" xmlns="http://www.w3.org/2000/svg" class="svg-inline--fa fa-terminal fa-w-20">

 <g>
  <title>Layer 1</title>
  <path stroke="null" id="svg_1" d="m257.98152,335.31375l-194.343,194.343c-9.373,9.373 -24.569,9.373 -33.941,0l-22.668,-22.667c-9.357,-9.357 -9.375,-24.522 -0.04,-33.901l154.022,-154.746l-154.021,-154.745c-9.335,-9.379 -9.317,-24.544 0.04,-33.901l22.667,-22.667c9.373,-9.373 24.569,-9.373 33.941,0l194.343,194.343c9.373,9.372 9.373,24.568 0,33.941zm382.019,183.029l0,-32c0,-13.255 -10.745,-24 -24,-24l-304,0c-13.255,0 -24,10.745 -24,24l0,32c0,13.255 10.745,24 24,24l304,0c13.255,0 24,-10.745 24,-24z" fill="white"/>
 </g>
</svg>